<?xml version="1.0" encoding="UTF-8" standalone="no"?>
<svg
   version="1.0"
   width="1774.000000pt"
   height="887.000000pt"
   viewBox="0 0 1774.000000 887.000000"
   preserveAspectRatio="xMidYMid meet"
   id="svg34"
   sodipodi:docname="logo.svg"
   inkscape:version="1.2.2 (b0a8486541, 2022-12-01)"
   xmlns:inkscape="http://www.inkscape.org/namespaces/inkscape"
   xmlns:sodipodi="http://sodipodi.sourceforge.net/DTD/sodipodi-0.dtd"
   xmlns="http://www.w3.org/2000/svg"
   xmlns:svg="http://www.w3.org/2000/svg">
  <defs
     id="defs38" />
  <sodipodi:namedview
     id="namedview36"
     pagecolor="#ffffff"
     bordercolor="#000000"
     borderopacity="0.25"
     inkscape:showpageshadow="2"
     inkscape:pageopacity="0.0"
     inkscape:pagecheckerboard="0"
     inkscape:deskcolor="#d1d1d1"
     inkscape:document-units="pt"
     showgrid="false"
     inkscape:zoom="0.41673063"
     inkscape:cx="1029.442"
     inkscape:cy="327.54972"
     inkscape:window-width="1920"
     inkscape:window-height="963"
     inkscape:window-x="0"
     inkscape:window-y="32"
     inkscape:window-maximized="1"
     inkscape:current-layer="g10474" />
  <g
     transform="translate(0.000000,887.000000) scale(0.100000,-0.100000)"
     fill="#000000"
     stroke="none"
     id="g32">
    <g
       id="g10459"
       transform="matrix(1.0042112,0,0,1.0042112,-11.940835,83.215362)">
      <path
         d="m 4635,6469 c -109,-15 -290,-58 -403,-95 -317,-106 -573,-264 -808,-498 -307,-308 -490,-662 -571,-1106 -24,-130 -23,-445 1,-585 37,-220 94,-391 197,-595 220,-436 566,-753 1029,-943 279,-115 642,-172 933,-148 401,34 729,147 1062,367 281,186 340,279 269,423 -33,65 -87,106 -159,121 -96,20 -147,2 -270,-97 -210,-169 -430,-273 -706,-335 -92,-20 -130,-23 -324,-23 -189,0 -235,3 -325,22 -282,60 -532,184 -734,364 -281,251 -468,618 -502,988 l -7,71 h 515 515 l -14,53 c -13,49 -12,123 3,184 l 6,23 h -510 -511 l 6,38 c 11,83 54,246 86,329 87,223 185,374 356,544 229,228 474,358 807,429 128,27 375,37 510,21 307,-37 591,-154 830,-341 82,-65 117,-81 183,-87 141,-13 252,72 268,205 12,103 -25,164 -161,261 -271,194 -588,328 -934,393 -123,23 -516,33 -637,17 z"
         id="path2"
         style="fill:#000080" />
      <path
         d="m 4720,4928 c -109,-42 -186,-113 -238,-218 -24,-50 -27,-66 -27,-165 0,-101 2,-115 29,-170 38,-77 124,-163 201,-201 55,-27 69,-29 170,-29 105,0 114,2 177,33 261,128 315,453 110,655 -84,82 -153,111 -272,114 -77,2 -105,-1 -150,-19 z"
         id="path16"
         style="fill:#008000" />
      <path
         d="m 5377,4633 c 11,-37 10,-160 0,-200 l -9,-33 h 472 472 l 28,28 c 16,16 32,45 35,65 10,54 -3,106 -35,139 l -28,28 h -471 -471 z"
         id="path18"
         style="fill:#000080" />
    </g>
    <path
       d="m 8384.5478,4575.8575 c -54.0255,-27.5875 -75.8656,-81.613 -70.1182,-183.9167 3.4484,-77.0151 6.8969,-88.5099 40.2318,-121.8448 l 36.7833,-36.7833 118.3964,2.2989 c 134.489,2.299 165.525,16.0927 190.8135,83.912 14.9433,42.5307 9.1959,171.2724 -10.3453,208.0558 -6.8969,11.4947 -28.737,32.1854 -48.2781,43.6802 -47.1287,29.8864 -202.3084,32.1854 -257.4834,4.5979 z"
       id="path22"
       style="fill:#008000;stroke-width:1.14948"
       inkscape:export-filename="path22.png"
       inkscape:export-xdpi="107.99999"
       inkscape:export-ydpi="107.99999" />
    <g
       id="g10474"
       transform="matrix(1.0045717,0,0,1.0045717,-34.410316,-141.82584)">
      <g
         id="g8991"
         style="fill:#100d49;fill-opacity:1"
         transform="matrix(1.1494793,0,0,1.1494793,-1125.0943,-405.98574)">
        <path
           d="m 12576,6159 -26,-20 v -758 c 0,-722 1,-759 18,-774 25,-23 257,-25 288,-3 18,14 19,33 24,373 l 5,360 30,49 c 42,67 105,105 187,111 113,9 193,-31 241,-121 21,-39 22,-55 27,-399 5,-340 6,-359 24,-373 15,-10 52,-14 143,-14 181,0 165,-42 160,423 -4,414 -6,433 -63,536 -88,163 -309,246 -522,196 -74,-17 -122,-41 -185,-89 l -47,-36 v 246 c 0,321 4,313 -166,314 -98,0 -115,-3 -138,-21 z"
           id="path4"
           style="fill:#100d49;fill-opacity:1" />
        <path
           d="m 9225,5774 c -181,-29 -312,-107 -373,-221 -42,-79 -50,-132 -24,-156 17,-15 36,-17 148,-15 l 129,3 17,35 c 40,81 114,116 229,108 126,-9 191,-69 193,-176 l 1,-57 -195,-6 c -150,-5 -213,-11 -272,-27 -143,-39 -223,-92 -274,-184 -27,-49 -29,-60 -29,-158 0,-94 3,-110 27,-155 80,-154 278,-232 483,-191 101,19 170,51 230,107 23,21 45,39 49,39 3,0 6,-22 6,-49 0,-76 10,-81 150,-81 96,0 122,3 135,16 14,15 16,59 13,428 -3,369 -5,416 -22,462 -43,121 -153,215 -297,254 -82,22 -254,35 -324,24 z m 325,-721 c 0,-90 -16,-132 -69,-184 -55,-53 -115,-74 -211,-74 -141,1 -223,109 -160,210 34,55 101,77 264,86 76,5 141,11 144,14 3,3 11,5 19,5 9,0 13,-16 13,-57 z"
           id="path6"
           style="fill:#100d49;fill-opacity:1" />
        <path
           d="m 14273,5770 c -214,-23 -376,-141 -412,-300 -8,-36 -7,-50 5,-68 14,-22 19,-22 147,-20 l 132,3 17,35 c 47,94 154,131 284,99 84,-21 141,-104 132,-192 l -3,-32 -190,-7 c -268,-9 -392,-45 -489,-141 -51,-52 -75,-100 -88,-181 -42,-254 197,-443 502,-397 92,14 206,67 249,116 17,19 32,35 33,35 2,0 3,-22 3,-49 0,-76 8,-81 147,-81 66,0 128,5 139,10 18,10 19,25 19,403 0,417 -4,456 -51,548 -79,155 -320,246 -576,219 z m 307,-717 c 0,-88 -16,-132 -69,-184 -53,-54 -104,-73 -201,-73 -113,-1 -185,53 -185,139 0,55 26,93 88,123 38,20 71,25 188,33 78,5 144,11 147,14 3,3 11,5 19,5 9,0 13,-16 13,-57 z"
           id="path8"
           style="fill:#100d49;fill-opacity:1" />
        <path
           d="m 8055,5764 c -11,-2 -45,-9 -75,-15 -205,-40 -379,-212 -436,-430 -21,-77 -23,-232 -5,-309 50,-208 207,-370 411,-425 212,-57 445,-4 593,134 72,68 137,171 137,218 0,53 -25,63 -167,63 h -122 l -35,-53 c -65,-98 -181,-137 -302,-102 -47,13 -69,27 -111,70 -63,65 -87,132 -87,245 0,117 24,182 92,249 63,63 106,81 192,81 102,0 181,-43 220,-121 l 20,-39 h 138 c 94,0 142,4 150,12 38,38 -17,170 -107,258 -63,62 -173,121 -266,145 -62,16 -205,27 -240,19 z"
           id="path10"
           style="fill:#100d49;fill-opacity:1" />
        <path
           d="m 11778,5760 c -252,-45 -427,-205 -488,-446 -72,-280 49,-564 291,-683 137,-68 278,-86 426,-55 181,37 333,147 399,289 29,60 30,96 6,118 -15,14 -41,17 -145,17 -89,0 -129,-4 -136,-12 -6,-7 -25,-33 -43,-57 -49,-66 -113,-96 -208,-96 -65,0 -83,4 -130,30 -108,60 -155,161 -148,319 7,145 57,232 163,282 68,33 161,33 230,0 51,-23 108,-78 120,-115 4,-13 18,-21 43,-25 57,-10 241,1 257,14 42,35 -13,171 -105,260 -65,63 -169,120 -263,144 -73,19 -208,27 -269,16 z"
           id="path12"
           style="fill:#100d49;fill-opacity:1" />
        <path
           d="m 10583,5745 c -76,-21 -129,-50 -183,-101 l -47,-44 -5,50 c -8,78 -12,80 -157,80 -69,0 -131,-4 -137,-8 -32,-21 -34,-52 -34,-556 0,-498 3,-549 33,-568 7,-4 69,-8 138,-8 107,0 128,3 142,18 13,15 16,64 19,357 l 3,340 29,58 c 18,37 43,69 67,87 75,54 194,64 276,22 48,-25 67,-46 95,-107 22,-49 23,-60 26,-395 3,-298 6,-347 19,-362 14,-15 35,-18 142,-18 69,0 133,5 141,10 13,8 16,58 20,312 8,465 -2,541 -83,660 -49,72 -138,138 -220,164 -72,23 -218,28 -284,9 z"
           id="path14"
           style="fill:#100d49;fill-opacity:1" />
      </g>
      <g
         id="g8998"
         style="fill:#008000"
         transform="matrix(1.1494793,0,0,1.1494793,-1125.0943,-405.98574)">
        <path
           d="m 7695,4341 c -46,-19 -45,0 -47,-790 l -3,-753 24,-19 c 20,-16 40,-19 143,-19 113,0 120,1 143,25 l 25,24 v 740 740 l -24,28 c -23,27 -28,28 -133,30 -59,2 -117,-1 -128,-6 z"
           id="path20"
           style="fill:#008000" />
        <path
           d="m 8820,4338 c -51,-27 -50,-12 -50,-796 v -733 l 25,-24 c 23,-24 30,-25 140,-25 142,0 155,8 155,97 v 56 l 60,-57 c 107,-102 241,-142 402,-118 234,34 414,213 464,462 40,202 -16,421 -145,563 -64,69 -130,112 -223,144 -177,62 -418,10 -513,-111 l -25,-31 v 266 c 0,334 10,313 -152,317 -79,2 -120,-1 -138,-10 z m 708,-702 c 110,-56 166,-161 165,-311 -1,-141 -58,-241 -169,-296 -68,-33 -189,-34 -251,-1 -113,60 -165,145 -171,282 -7,136 35,240 119,303 83,61 213,70 307,23 z"
           id="path24"
           style="fill:#008000" />
        <path
           d="m 11440,3925 c -156,-35 -314,-147 -387,-275 -177,-310 -77,-719 211,-860 118,-58 189,-74 331,-74 139,1 215,17 321,69 114,56 244,202 244,276 0,50 -24,59 -161,59 h -125 l -55,-54 c -67,-63 -124,-86 -220,-86 -155,0 -265,89 -293,238 l -5,32 h 437 c 514,0 482,-6 482,98 -1,144 -59,304 -146,401 -59,65 -152,124 -249,157 -100,33 -281,43 -385,19 z m 292,-267 c 53,-23 112,-82 134,-134 28,-68 44,-64 -272,-64 h -286 l 7,28 c 8,34 46,93 82,126 80,74 221,93 335,44 z"
           id="path26"
           style="fill:#008000" />
        <path
           d="m 10717,3909 c -79,-19 -157,-72 -208,-143 l -29,-39 v 64 c 0,105 -6,109 -160,109 -104,0 -132,-3 -144,-16 -14,-14 -16,-77 -16,-550 0,-521 0,-534 20,-554 18,-18 33,-20 144,-20 178,0 166,-25 166,340 0,326 5,359 71,434 57,64 122,89 238,91 120,2 121,3 121,142 0,97 -2,106 -25,128 -20,21 -33,25 -82,24 -32,-1 -75,-5 -96,-10 z"
           id="path28"
           style="fill:#008000" />
        <path
           d="m 8234,3879 c -18,-20 -19,-44 -19,-551 v -530 l 24,-19 c 20,-16 40,-19 143,-19 113,0 120,1 143,25 l 25,24 v 519 c 0,634 18,572 -169,572 -117,0 -129,-2 -147,-21 z"
           id="path30"
           style="fill:#008000" />
      </g>
    </g>
  </g>
</svg>
